<?xml version="1.0" encoding="UTF-8"?>
<svg id="Layer_2" data-name="Layer 2" xmlns="http://www.w3.org/2000/svg" viewBox="0 0 300 250">
  <defs>
    <style>
      .cls-1 {
        fill: #33469f;
      }

      .cls-1, .cls-2, .cls-3, .cls-4, .cls-5, .cls-6, .cls-7, .cls-8, .cls-9, .cls-10, .cls-11, .cls-12, .cls-13, .cls-14, .cls-15, .cls-16, .cls-17, .cls-18, .cls-19, .cls-20, .cls-21, .cls-22, .cls-23, .cls-24, .cls-25, .cls-26, .cls-27, .cls-28, .cls-29, .cls-30, .cls-31, .cls-32, .cls-33, .cls-34, .cls-35, .cls-36, .cls-37, .cls-38, .cls-39, .cls-40, .cls-41, .cls-42, .cls-43 {
        stroke-width: 0px;
      }

      .cls-2 {
        fill: #dceaf4;
      }

      .cls-3 {
        fill: #4793cd;
      }

      .cls-4 {
        fill: #838182;
      }

      .cls-5 {
        fill: #3e2527;
      }

      .cls-6 {
        fill: #6572b4;
      }

      .cls-7 {
        fill: #fcfcfc;
      }

      .cls-8 {
        fill: #4ea8e1;
      }

      .cls-9 {
        fill: #332426;
      }

      .cls-10 {
        fill: #ea1c24;
      }

      .cls-11 {
        fill: #448ccd;
      }

      .cls-12 {
        fill: #543234;
      }

      .cls-13 {
        fill: #4287ca;
      }

      .cls-14 {
        fill: #f7f7f7;
      }

      .cls-15 {
        fill: #fbfbfd;
      }

      .cls-16 {
        fill: #3b2526;
      }

      .cls-17 {
        fill: #432e2f;
      }

      .cls-18 {
        fill: #fdfdfd;
      }

      .cls-19 {
        fill: #c6c5c6;
      }

      .cls-20 {
        fill: #e31c24;
      }

      .cls-21 {
        fill: #e8e8e8;
      }

      .cls-22 {
        fill: #e81c24;
      }

      .cls-23 {
        fill: #54aadf;
      }

      .cls-24 {
        fill: #757374;
      }

      .cls-25 {
        fill: #2b3f9c;
      }

      .cls-26 {
        fill: #472c2e;
      }

      .cls-27 {
        fill: #344778;
      }

      .cls-28 {
        fill: #4692d1;
      }

      .cls-29 {
        fill: #fcfcfd;
      }

      .cls-30 {
        fill: #8991c1;
      }

      .cls-31 {
        fill: #4656a6;
      }

      .cls-32 {
        fill: #6c6a6b;
      }

      .cls-33 {
        fill: #fafbfc;
      }

      .cls-34 {
        fill: #392527;
      }

      .cls-35 {
        fill: #e71c24;
      }

      .cls-36 {
        fill: #2f449e;
      }

      .cls-37 {
        fill: #f9fafc;
      }

      .cls-38 {
        fill: #959495;
      }

      .cls-39 {
        fill: #50abe3;
      }

      .cls-40 {
        fill: #d1d1d1;
      }

      .cls-41 {
        fill: #858383;
      }

      .cls-42 {
        fill: #e91c24;
      }

      .cls-43 {
        fill: #fefefe;
      }
    </style>
  </defs>
  <g id="Layer_1-2" data-name="Layer 1">
    <g>
      <path class="cls-43" d="M0,0h300v250H0V0ZM162.09,164.14c.36-1.72.72-3.43,1.07-5.15,2.43-1.48,4.97-.87,7.52-.68.2,1.02.35,1.8.5,2.59-1.27,9.13,5.04,15.04,9.58,21.92-4.55,1.28-6.82-3.2-11.14-3.83.4,5.88.78,11.44,1.16,16.98,7.96,2.65,15.31,3.99,21.94-3,.37,1.68.63,2.86.96,4.38,4.7-.07,9.24.26,14.26-.22v-16.72c1.91.13,3.27.22,4.72.32v16.2c5.98.8,11.14.62,14.29-.44.92-2.59-.87-5.67,1.57-8.21.51.65.94,1.13,1.3,1.67,4.62,6.96,11.27,9.57,19.37,7.57,4.32-1.07,7.99-3.06,9.9-7.38.82-.51,1.65-1.01,2.46-1.51-.13,2.35-.29,4.72-.37,7.09-.05,1.29.73,1.65,1.89,1.4,3.67-.02,7.34-.03,11.01-.05.36-.76,1-1.52,1.03-2.29.12-4.21.08-8.43.1-12.65,0,0-.07.08-.07.08.81-.12,1.61-.29,2.42-.35,6.43-.51,9.7-3.28,11.5-9.78,1.85-4.87,1.71-9.79.14-14.67-1.4-4.36-4.45-7.13-9.05-7.36-5.6-.29-11.23-.07-17.07-.07-.27,3.59-.5,6.64-.72,9.68-4.43-7-10.35-10.49-18.29-10.55.34-1.01.67-2.01,1.01-3.02,3.28-2.77,6.72-5.37,9.78-8.36,2.41-2.37,3.63-5.47,3.25-9.01-.35-3.28-.46-6.62-1.11-9.84-1.67-8.28-5.99-14.6-14.08-17.88-6.72-2.72-13.52-2.57-20.43-.7-1.66.45-3.96.87-5.18.09-2.04-1.31-4.04-1.31-6.17-1.34-5-.07-10-.06-14.99-.11-5.65-.06-11.3-.31-16.37,3.01-2.18,1.43-4.43,1.34-6.97.09-7.3-3.6-14.86-4.26-22.54-1.01-1.36.58-2.77,1.13-4.22,1.4-.57.11-1.29-.59-1.95-.93,3.66-6.43,3.65-7.32,3.97-15.31.41-10.03-8.1-17.65-17.18-18.23-2.32-.15-4.67-.13-7,0-5.37.31-5.57.32-10.86-1.8-.3-.12-.66-.1-.99-.14-2.45-.3-3.4-1.79-4.31-4.08-2.07-5.18-6.06-8.14-11.94-8-2.66.06-5.33-.02-8,.04-13.46.3-26.93.52-40.38.99-4.54.16-7.91,2.3-9.99,6.75-1.83,3.89-1.23,7.81-1.43,11.75-.16,3.18.88,6.21,3.19,8.09,3.74,3.03,3.05,6.54,2.36,10.37-.94,5.19-2.09,10.39-2.42,15.63-.4,6.41,4.55,11.29,10.92,11.49,2.66.09,5.33.12,8,.05,2.06-.05,3.84.22,5.44,1.82,1.7,1.7,3.96,2.34,6.41,2.18.83-.05,1.67.04,2.5,0,4.42-.23,8.92.74,13.19-1.61,1.05-.58,2.98.45,4.57.75-.36,9.85-1.25,19.28,4.83,27.64-1.35.14-2.01.2-2.67.27-7.24-2.63-15.89.46-20.45,7.71-.61-.38-1.65-.67-1.74-1.15-.24-1.28-.02-2.64-.08-3.96-.14-2.93-.53-3.29-3.54-3.5-1.41-.1-2.82-.21-4.27-.33-.15-2.71-.27-5.01-.4-7.31-.17,0-.33,0-.5,0-.84,2.46-1.68,4.91-2.51,7.34-.7.12-1.17.23-1.65.27-4.28.38-4.72.82-5.2,4.92-.11.96-.46,1.9-.87,3.52-.93-1.75-1.45-2.73-1.97-3.71-.17-1.25-.34-2.5-.53-3.91-4.81,0-9.32-.45-13.7.15-3.21.44-6.02.22-9.13-.54-2.6-.64-5.68-.45-8.28.31-5.56,1.62-7.94,6.03-8.67,11.53-.88,6.64,2.17,11.8,6.11,16.65.18.6.26,1.28.57,1.8,1.25,2.08-.4,2.03-1.63,2.31-2.07-1.15-4.15-2.3-6.89-3.82.42,6.43.78,12.01,1.17,18,3.74.59,7.31,1.33,10.92,1.66,3.98.36,7.16-1.95,10.38-4.02.43,1.2.75,2.1,1.03,2.91,7.48.86,34.77.57,38.27-.38.83-2.7-.66-5.78,1.29-8.98,3.42,7.25,8.88,10.4,16.15,10.49,7.35.1,12.47-3.88,17.07-9.33v8.2h13.69c.48-2.52.95-5.04,1.42-7.54.8,1.27,1.63,2.57,2.45,3.88,1.13,3.95,1.13,4.02,4.86,4.03,10.79.04,21.59.02,32.38,0,1.12,0,2.25-.14,3.97-.25v-14.02c-.68-1.01-1.36-2.03-2.05-3.04.02-1.99.05-3.98.07-5.97,0-2.34,0-4.67,0-7.01.67-.99,1.35-1.98,2.02-2.96h-.02Z"/>
      <path class="cls-39" d="M92.31,150.16c.66-.07,1.31-.13,2.67-.27-6.07-8.37-5.19-17.79-4.83-27.64-1.59-.3-3.52-1.32-4.57-.75-4.27,2.35-8.77,1.38-13.19,1.61-.83.04-1.67-.05-2.5,0-2.44.16-4.71-.48-6.41-2.18-1.6-1.6-3.37-1.87-5.44-1.82-2.66.07-5.33.04-8-.05-6.37-.21-11.32-5.08-10.92-11.49.33-5.24,1.47-10.44,2.42-15.63.7-3.83,1.38-7.34-2.36-10.37-2.31-1.87-3.35-4.91-3.19-8.09.2-3.94-.4-7.86,1.43-11.75,2.09-4.45,5.46-6.59,9.99-6.75,13.46-.47,26.92-.69,40.38-.99,2.66-.06,5.33.02,8-.04,5.88-.14,9.86,2.82,11.94,8,.92,2.29,1.86,3.77,4.31,4.08.33.04.69.02.99.14,5.29,2.12,5.49,2.11,10.86,1.8,2.33-.13,4.67-.15,7,0,9.08.58,17.58,8.19,17.18,18.23-.32,7.99-.31,8.88-3.97,15.31.66.34,1.38,1.03,1.95.93,1.44-.27,2.85-.82,4.22-1.4,7.68-3.24,15.24-2.59,22.54,1.01,2.54,1.25,4.79,1.34,6.97-.09,5.07-3.33,10.71-3.08,16.37-3.01,5,.06,10,.04,14.99.11,2.12.03,4.12.03,6.17,1.34,1.22.79,3.52.36,5.18-.09,6.91-1.87,13.71-2.02,20.43.7,8.09,3.28,12.41,9.6,14.08,17.88.65,3.22.76,6.56,1.11,9.84.38,3.53-.85,6.64-3.25,9.01-3.05,3-6.5,5.59-9.78,8.36-3.17.66-6.31,1.58-9.52,1.91-4.74.49-9.45.2-14.01-1.56-1.01-.39-2.61-.03-3.57.57-.47.29-.12,1.92-.14,2.95-2.14.06-4.3.09-4.12,3.17-1.48.64-2.95,1.28-4.43,1.92-.08-1.34-.16-2.68-.24-4.03-.18-.92-.37-1.85-.69-3.45,1.47-1.29,3.48-2.63,4.89-4.44,1.42-1.83,2.25-4.12,3.25-6.06,3.59,1.81,6.5,4.18,9.72,4.73,7.69,1.31,15.28.26,21.35-5.16,2.75-2.45,5.31-5.58,4.33-9.97-.39-1.74-.74-3.52-.88-5.29-.55-6.72-5.42-13.45-11.77-15.13-6.3-1.66-12.65-1.66-18.56,1.83-.82.49-1.78.75-2.87,1.19-2.97-4.03-7.09-4.53-11.61-4.29-3.55.19-7.07.57-10.7.12-6.73-.83-12.74,1.03-17.45,6.25-.39.43-1.14.53-2.32,1.04-3.6-5.49-9.57-6.83-15.39-6.92-5.84-.09-11.48,2.08-15.85,6.39-2.56-2.88-4.91-5.53-7.34-8.27.91-.96,1.76-1.99,2.75-2.86,3.72-3.25,5.71-7.15,5.12-12.23-.21-1.81.11-3.68-.08-5.49-.13-1.24-.58-2.51-1.15-3.64-3-6.01-8.28-8-14.61-8.46-5.63-.42-10.74,1.24-16.06,3.42-3.18-4.03-8.04-1.42-12.1-2.92.11-.8.13-1.46.3-2.07,1.75-6.49-.21-9.33-6.72-9.21-6.45.12-12.9.66-19.36.78-8.33.16-16.66.03-24.99.14-5.48.07-8.17,2.87-8.22,8.25-.01,1.33-.05,2.67,0,4,.12,2.81,1.82,4.93,4.53,5.7.92.26,1.86.44,3.32.78-1.26,6.79-2.49,13.36-3.68,19.94-.44,2.42-.97,4.85-1.13,7.3-.21,3.17,2.13,5.93,5.22,5.98,4.59.06,9.19-.23,14.17-.38,4.41,5.95,13.76,6.53,20.34,1.36,2.78.44,4.96.92,7.16,1.09,2.26.17,4.55.04,7.33.04-.79,2.88-1.35,5.07-1.99,7.23-2.83,9.52-1.6,18.41,4.76,26.12,2.78,3.37,1.77,6.78,1.51,10.31-.01.19-.88.32-1.36.48-1.71-4.78-5.73-7.03-9.94-9.07Z"/>
      <path class="cls-9" d="M92.31,150.16c4.21,2.04,8.23,4.29,9.94,9.07.73.87,1.46,1.74,2.19,2.6l.86-.4v-11.37c4.82.4,9.2.76,13.58,1.12-.17,2.49-.33,4.97-.5,7.46,1.38-1.1,1.9-2.56,2.71-3.84.83-1.32,1.81-3.35,2.95-3.52,5.13-.75,10.23-2.05,15.59-.58,2.61.72,5.77,1.43,8.43-.61h14.71c.17,1.38.28,2.2.38,3.01-.12,1.35-.25,2.7-.37,4.05-.23,2.33-.46,4.65-.69,6.98h.02c-3.59-.03-7.19-.11-10.78,0-.72.02-1.42.82-2.13,1.26v.36c.7.44,1.39,1.23,2.11,1.27,2.92.14,5.85.06,8.78.05,0,2.34,0,4.67,0,7.01-2.1,1.62-.59,3.89-1.03,5.81-1,.04-1.99.09-2.99.13.31-.71.61-1.43.92-2.14.34-2.87.69-5.75,1.03-8.62-.75-.39-1.48-1.09-2.25-1.13-2.89-.13-5.79-.05-8.68-.05-.01-1.67-.02-3.34-.03-5,3.15,0,6.3.07,9.44-.04.86-.03,1.71-.58,2.56-.89,0,0,.42-.12.42-.12l.44.02c1.57-2.74,1.62-5.82.12-8.96-7.29,0-14.58.01-21.87.02-.37,1.12-1.04,2.24-1.05,3.37-.08,7.22-.02,14.45,0,21.67,0,0,.03,0,.03,0-.36-.83-.99-1.65-1.02-2.49-.11-3.98-.04-7.96-.05-11.95,0-3.25-.02-3.24-2.94-5.74-.18-.15-.07-.64-.09-.97.34-1.14.68-2.27,1.19-3.94-2.47,0-4.26.09-6.04-.02-2.65-.16-4.16.92-5.12,3.48-1.47,3.92-3.33,7.69-5.02,11.53-1.94,2.18-3.19,4.47-1.06,7.24.17.96.03,2.19.57,2.84,1.92,2.31,2.02,5.12,2.59,7.82-.04.41-.09.83-.13,1.24-.59-.23-1.17-.47-2.01-.8-1.82,3.46-.77,7.11-1.01,10.61h-13.69v-8.2c-4.59,5.45-9.72,9.42-17.07,9.33-7.27-.09-12.73-3.24-16.15-10.49-1.95,3.2-.46,6.28-1.29,8.98-3.5.95-30.79,1.23-38.27.38-.29-.81-.61-1.71-1.03-2.91-3.22,2.08-6.41,4.39-10.38,4.02-3.61-.33-7.17-1.07-10.92-1.66-.39-5.99-.75-11.57-1.17-18,2.75,1.52,4.82,2.67,6.89,3.82.86,1.77,2.18,2.07,3.94,1.43.65-2.87-.74-4.41-2.89-5.55-3.93-4.85-6.99-10.01-6.11-16.65.73-5.51,3.11-9.92,8.67-11.53,2.6-.76,5.68-.94,8.28-.31,3.11.76,5.92.97,9.13.54,4.37-.59,8.89-.15,13.7-.15.19,1.42.36,2.67.53,3.91-.14,2.32-1.09,4.95,2.57,6.32.89-3.19,1.7-6.1,2.38-8.52,2.64-.81,4.73-1.46,6.95-2.14,1.79,2.75,5.13.61,7.62,1.87.96,3.11-.57,6.51,1.31,10.38.87-1.84,1.39-2.92,1.9-4.01,4.57-7.25,13.21-10.34,20.45-7.71ZM41.29,169.89c.17-.08.35-.16.52-.24,1.06,7.48,2.09,14.97,3.23,22.45.13.89.59,2.04,1.28,2.48,2.89,1.89,6.94-.03,7.61-3.4,1.51-7.53,3.06-15.05,4.6-22.57.21,0,.41,0,.62,0v26.03h6.7c.26-7.17.6-13.97.73-20.77.12-6.77.03-13.54.03-20.45h-11.21c-.83,3.89-1.15,7.61-2.48,10.91-1.24,3.09.35,7.22-3.31,9.78-1.11-7.19-2.16-13.97-3.19-20.63h-11.09c-.43,7.2-1.15,13.98-1.15,20.76,0,6.88-2.18,13.72-.55,20.88,2.13-.16,4.04-.3,6.51-.49.41-8.58.79-16.66,1.17-24.73ZM69.45,174.5c1,4.12,1.67,8.37,3.11,12.33,1.33,3.67,4.23,6.5,7.92,7.84,8.84,3.22,18.03-1.89,20.58-11.07,1.38-4.96,1.67-9.93,1.19-15.08-.4-4.24-1.41-7.96-4.16-11.35-6.44-7.94-19.81-6.76-24.87,3.27-2.13,4.22-3.78,8.87-3.77,14.05ZM28.87,162.22v-8.6c-1.34-.51-2.38-1.04-3.49-1.32-5.81-1.44-11.78,1.08-13,6.21-1.18,4.98-1.37,10.21,2.21,14.67,1.24,1.55,2.49,3.09,3.61,4.73.74,1.08,1.5,2.25,1.83,3.49.89,3.37-.82,5.27-4.24,4.67-1.55-.27-3.01-1.08-5.25-1.93-.14,2.61-.36,4.83-.36,7.05,0,2.38,1.42,3.7,3.72,3.83,2.66.15,5.34.19,7.99,0,1.05-.07,2.12-.74,3.06-1.34,5.95-3.81,5.06-14.69,2.03-19-1.23-1.76-2.53-3.51-4.04-5.03-2.13-2.14-2.61-4.45-1.52-7.44h7.46ZM107.04,153.25c.48,14.24-1.96,27.89-.66,41.5h8.38c.36-13.94.72-27.62,1.08-41.5h-8.8ZM22.77,164.88c2.31,4.3,5.08,7.9,9.23,11.27-.61-3.44,1.51-6.8-1.48-8.93-2.04-1.45-3.99-4.17-7.75-2.34Z"/>
      <path class="cls-34" d="M209.05,151.04c.08,1.34.16,2.68.24,4.03v10.12c1.58-.11,2.92-.2,4.43-.3v-11.74c-.18-3.07,1.98-3.1,4.12-3.17,2.16,0,4.32,0,6.47,0,1.22.28,2.44.55,3.66.83v9.39c2.72-3.06,4.95-5.56,7.18-8.06l-.04.02c2.98-1.01,5.97-2.02,8.95-3.04,7.94.06,13.86,3.55,18.29,10.55.23-3.04.45-6.08.72-9.68,5.84,0,11.47-.22,17.07.07,4.6.24,7.64,3.01,9.05,7.36,1.57,4.88,1.72,9.8-.14,14.67-.67-.15-1.44,1.61-2.03-.11.07-1.65-.3-3.47.28-4.91,1.31-3.22-.1-6.26-.7-9.11-.4-1.89-3.15-4.4-5.09-4.64-5.3-.64-10.73-.22-16.53-.22v11.98c-.3,1.03-.85,2.05-.87,3.08-.09,5.31-.04,10.62-.05,15.93,0,1.79,0,3.57,0,5.36l-.51-.03c-.5-1.38-1-2.77-1.51-4.15-.37,0-.74.02-1.11.02l-1.86,4.85c-1.92,4.32-5.58,6.31-9.9,7.38-8.1,2-14.75-.61-19.37-7.57-.36-.53-.79-1.02-1.3-1.67-2.44,2.54-.65,5.62-1.57,8.21-3.14,1.06-8.3,1.24-14.29.44v-16.2c-1.45-.1-2.81-.19-4.72-.32v16.72c-5.02.48-9.57.15-14.26.22-.33-1.52-.59-2.7-.96-4.38-6.63,6.99-13.98,5.66-21.94,3-.38-5.54-.76-11.1-1.16-16.98,4.32.63,6.59,5.11,11.14,3.83-4.54-6.88-10.85-12.79-9.58-21.92,1.38-2.58,1.46-5.79,3.87-7.86,3.23-1.55,5.98-4.33,9.98-3.9,3.24,1.13,6.52,1.8,9.94.85,4.69.35,9.39.7,14.08,1.05ZM224.13,194.79c-.44-14.21,2.06-27.86.68-41.43h-8.8v14.42h-10.2v-14.43h-8.34c-.48,13.91-.95,27.56-1.43,41.32h9.3v-16.35h10.79c-.37,5.68-.71,11.01-1.06,16.47h9.04ZM260.95,173.52c.41-5.04-.49-9.59-2.83-13.98-3.74-7.02-12.59-9.99-20.04-5.56-5.44,3.24-9.18,8.57-9,15.64.08,3-.09,6,0,8.99.29,10.62,7.25,17.04,17.87,16.46,4.65-.26,8.14-2.49,10.37-6.61,2.55-4.71,4.27-9.63,3.63-14.95ZM173.49,184.97c-.97,9.66-.5,10.2,8.17,10.17.67,0,1.34-.1,2-.03,3.63.37,5.52-2.22,7.01-4.7,1.04-1.73,1.18-4.08,1.45-6.19.72-5.48-2.55-9.32-5.61-13.27-1.29-1.67-2.47-3.5-3.26-5.44-.75-1.83.31-3.36,2.31-3.48,2.06-.12,4.15.19,6.44.32,0-2.15.18-4.32-.08-6.43-.12-.98-.85-2.2-1.68-2.73-5.42-3.44-13.25-.4-15.35,5.69-1.71,4.97-.71,9.43,2.05,13.66,1.8,2.76,3.86,5.37,5.45,8.24,1.86,3.35.41,5.53-3.38,5.3-1.75-.11-3.48-.68-5.52-1.11ZM193.76,167.52c-2.46-.73-4.11-4.01-8.05-2.73,1.59,4.31,4.95,6.95,8.05,10.12v-7.39Z"/>
      <path class="cls-16" d="M119.99,187.19c.04-.41.09-.83.13-1.24.63.91,1.45,1.75,1.84,2.76.76,1.96,1.27,4.01,1.88,6.01,3.61.33,6.81.63,9.88-.13.13-.52.25-.71.19-.84-2.67-6.13-5.43-12.21-7.98-18.39-.58-1.41-1.07-3.45-.48-4.66,2.27-4.69,5-9.16,7.56-13.71.02.33-.09.82.09.97,2.93,2.5,2.94,2.5,2.94,5.74,0,3.98-.06,7.97.05,11.95.02.84.66,1.66,1.02,2.49.02,5.4.03,10.8.05,16.51h21.72v-8.98h-12.47c-.14-.58-.33-1.03-.36-1.49-.06-.83-.06-1.66-.02-2.49.16-2.99.55-3.42,3.48-3.58,2.48-.13,4.97-.16,7.45-.23-.31.71-.61,1.43-.92,2.14-2.26.11-4.52.22-7.09.34.22,1.45.38,2.48.55,3.63,4.4-.32,8.46-.61,12.53-.9v14.02c-1.72.11-2.84.25-3.97.25-10.79.02-21.59.04-32.38,0-3.73-.01-3.73-.08-4.86-4.03-.29-2.05-.57-4.1-.86-6.15ZM132.1,183.04l2,3.89c.29-.1.58-.21.88-.31v-7.56c.06-3.15.22-6.3.16-9.45-.06-3.11.57-6.33-.76-10.43-2.57,5.16-4.6,9.25-6.65,13.36,1.48,3.56,2.92,7.03,4.37,10.5Z"/>
      <path class="cls-2" d="M224.32,149.98c-2.16,0-4.32,0-6.47,0,.02-1.02-.34-2.65.14-2.95.96-.6,2.56-.96,3.57-.57,4.57,1.76,9.28,2.05,14.01,1.56,3.2-.33,6.35-1.25,9.52-1.91-.34,1.01-.67,2.01-1.01,3.02-2.98,1.01-5.97,2.02-8.95,3.04.52-.94,1.04-1.89,1.51-2.76h-6.27v5.07c1.74-.84,3.26-1.59,4.79-2.33-2.23,2.5-4.45,5-7.18,8.06v-9.39c-.78-2.05-1.54-2.22-3.66-.83Z"/>
      <path class="cls-24" d="M71.86,157.87c-.52,1.08-1.03,2.17-1.9,4.01-1.88-3.88-.35-7.28-1.31-10.38-2.49-1.26-5.83.88-7.62-1.87-2.23.69-4.31,1.33-6.95,2.14-.67,2.41-1.49,5.33-2.38,8.52-3.66-1.37-2.71-4-2.57-6.32.52.98,1.04,1.96,1.97,3.71.41-1.62.76-2.56.87-3.52.48-4.09.92-4.54,5.2-4.92.48-.04.95-.16,1.65-.27.83-2.42,1.67-4.88,2.51-7.34.17,0,.33,0,.5,0,.13,2.3.25,4.6.4,7.31,1.45.11,2.86.22,4.27.33,3.01.21,3.4.57,3.54,3.5.06,1.32-.16,2.68.08,3.96.09.48,1.13.77,1.74,1.15Z"/>
      <path class="cls-23" d="M175.05,153.04c-2.41,2.07-2.49,5.28-3.87,7.86-.15-.79-.31-1.57-.5-2.59-2.55-.19-5.09-.79-7.52.68-.13-.61-.26-1.22-.38-1.83.12-1.35.25-2.7.37-4.05,3.96-1.71,7.93-1.74,11.9-.06Z"/>
      <path class="cls-17" d="M259.1,190.15l1.86-4.85c.37,0,.74-.02,1.11-.02.5,1.38,1,2.77,1.51,4.15l.51.03c0-1.79,0-3.57,0-5.36,0-5.31-.04-10.62.05-15.93.02-1.03.57-2.05.87-3.08.02,2.49.05,4.99.07,7.48.06,7.48.12,14.96.18,22.44-1.42,0-2.32.51-2.18,2.12-1.16.25-1.94-.11-1.89-1.4.08-2.37.24-4.74.37-7.09-.81.5-1.63,1-2.46,1.51Z"/>
      <path class="cls-34" d="M263.08,197.14c-.15-1.6.76-2.12,2.18-2.12,2.22.01,4.44.02,6.66.04.39-.93,1.1-1.85,1.12-2.78.12-4.54.05-9.09.05-13.77.84.23,1.45.4,2.06.57v-.03c1.48.56,2.96,1.13,4.07,1.55-1.13.46-2.61,1.05-4.08,1.64l.07-.08c-.38.77-1.06,1.53-1.08,2.31-.11,4.21-.05,8.42-.04,12.63-3.67.02-7.34.03-11.01.05Z"/>
      <path class="cls-17" d="M275.14,182.23c1.47-.59,2.95-1.19,4.08-1.64-1.11-.42-2.59-.99-4.08-1.55,4.63.62,8-1.15,10.2-5.28.37-.69,1.12-1.18,1.69-1.76.59,1.72,1.36-.04,2.03.11-1.8,6.5-5.07,9.26-11.5,9.78-.81.06-1.61.23-2.42.35Z"/>
      <path class="cls-41" d="M162.05,183.11c-4.07.29-8.14.59-12.53.9-.18-1.15-.33-2.18-.55-3.63,2.57-.12,4.83-.23,7.09-.34,1-.04,1.99-.09,2.99-.13.32.06.64.11.96.16.68,1.01,1.36,2.03,2.05,3.04Z"/>
      <path class="cls-16" d="M149.19,165.4c.71-.44,1.41-1.23,2.13-1.26,3.59-.12,7.19-.03,10.78-.02-.67.99-1.35,1.98-2.02,2.96-2.93,0-5.86.09-8.78-.05-.72-.04-1.4-.82-2.1-1.27,2.77.12,5.55.25,8.32.37,0-.41-.02-.83-.02-1.24-2.77.17-5.53.33-8.3.5Z"/>
      <path class="cls-32" d="M119.99,187.19c.29,2.05.57,4.1.86,6.15-.82-1.3-1.64-2.6-2.45-3.88-.47,2.5-.95,5.02-1.42,7.54.24-3.5-.81-7.16,1.01-10.61.84.33,1.42.57,2.01.8Z"/>
      <path class="cls-17" d="M274.09,197.09c0-4.21-.06-8.42.04-12.63.02-.78.7-1.54,1.08-2.31-.02,4.22.02,8.44-.1,12.65-.02.77-.67,1.53-1.03,2.29Z"/>
      <path class="cls-38" d="M14.94,178.16c2.15,1.14,3.54,2.67,2.89,5.55-1.76.64-3.08.34-3.94-1.43,1.22-.29,2.87-.24,1.63-2.31-.32-.53-.39-1.2-.57-1.8Z"/>
      <path class="cls-16" d="M162.78,157.16c.13.61.26,1.22.38,1.83-.36,1.72-.72,3.43-1.07,5.15.23-2.33.46-4.65.69-6.98Z"/>
      <path class="cls-16" d="M160,180.06c-.32-.05-.64-.1-.96-.16.45-1.92-1.07-4.18,1.03-5.81-.02,1.99-.05,3.98-.07,5.97Z"/>
      <path class="cls-25" d="M175.05,153.04c-3.98-1.67-7.94-1.65-11.9.06-.1-.82-.21-1.64-.38-3.01h-14.71c-1.02-.03-2.04-.06-3.05-.09.35-3-1.37-4.91-3.84-7.11-1.42,2.15-2.73,4.14-4.03,6.13l-7.4-.1c1.63-1.4,3.31-2.74,4.87-4.21,2.71-2.54,4.46-5.62,5.2-9.22-4.53-2.18-7.83-1.71-10.76,1.33-.8.83-1.65,1.66-2.59,2.31-3.44,2.38-9.45,1.58-11.66-1.57-1.85-2.65-3.03-5.6-2.46-8.89.79-4.55,2.55-8.65,7.1-10.66,4.59-2.03,8.44-.67,11.42,3.22,1.3,1.7,3,1.95,4.89,1.64,1.75-.29,3.48-.71,5.39-1.12.44-6.71-2.05-11.04-7.89-14.3-7.62-4.25-14.92-3.45-21.54.9-9.49,6.23-14.47,20.98-9.66,31.84,3.16,7.14,6.94,9.81,13.5,9.8,1.2,0,2.4.56,3.6.87l-.23.33c-4.38-.36-8.76-.72-13.58-1.12v11.37l-.86.4c-.73-.87-1.46-1.74-2.19-2.6.47-.16,1.34-.28,1.36-.48.26-3.53,1.27-6.94-1.51-10.31-6.36-7.71-7.59-16.6-4.76-26.12.64-2.16,1.2-4.36,1.99-7.23-2.79,0-5.07.13-7.33-.04-2.2-.17-4.38-.65-7.16-1.09-6.59,5.18-15.93,4.59-20.34-1.36-4.97.15-9.57.44-14.17.38-3.09-.04-5.44-2.81-5.22-5.98.16-2.45.69-4.88,1.13-7.3,1.19-6.58,2.43-13.14,3.68-19.94-1.47-.34-2.41-.52-3.32-.78-2.71-.77-4.41-2.89-4.53-5.7-.06-1.33-.02-2.67,0-4,.05-5.38,2.73-8.17,8.22-8.25,8.33-.11,16.66.02,24.99-.14,6.45-.12,12.9-.66,19.36-.78,6.51-.12,8.47,2.72,6.72,9.21-.17.61-.19,1.27-.3,2.07,4.07,1.5,8.92-1.11,12.1,2.92,5.32-2.18,10.42-3.84,16.06-3.42,6.34.47,11.61,2.45,14.61,8.46.56,1.13,1.02,2.4,1.15,3.64.19,1.81-.13,3.68.08,5.49.59,5.08-1.41,8.98-5.12,12.23-.99.87-1.84,1.91-2.75,2.86,2.44,2.74,4.79,5.39,7.34,8.27,4.37-4.31,10.01-6.48,15.85-6.39,5.82.09,11.79,1.44,15.39,6.92,1.18-.51,1.93-.61,2.32-1.04,4.71-5.22,10.72-7.07,17.45-6.25,3.63.45,7.15.07,10.7-.12,4.51-.24,8.63.26,11.61,4.29,1.09-.45,2.04-.71,2.87-1.19,5.91-3.49,12.26-3.49,18.56-1.83,6.35,1.68,11.22,8.41,11.77,15.13.15,1.78.49,3.55.88,5.29.99,4.39-1.58,7.51-4.33,9.97-6.07,5.41-13.67,6.47-21.35,5.16-3.22-.55-6.13-2.92-9.72-4.73-1.01,1.94-1.83,4.23-3.25,6.06-1.41,1.81-3.42,3.15-4.89,4.44.32,1.61.51,2.53.69,3.45-4.69-.35-9.39-.7-14.08-1.05,1.48-.64,2.94-1.31,4.44-1.91,8.29-3.38,13.27-8.91,12.82-18.5-.22-4.62.45-9.29.61-13.93.06-1.75-.17-3.51-.27-5.35-1.51-.16-2.48-.3-3.45-.35-4.78-.24-9.56-.48-14.34-.68-5.39-.22-10.21,1.22-13.82,5.42-3.47,4.02-4.85,8.79-3.12,13.88,1.84,5.44,6.16,8.23,11.77,8.38,3.36.09,6.75-.74,10.4-1.19.74,1.83-.28,3.29-1.93,4.69-2.93,2.49-6.43,3.24-10.07,3.7-1.23.16-2.44.44-3.64.66.27,1.8.47,3.07.66,4.34-4-.43-6.75,2.35-9.98,3.9ZM130.04,127.05c-.96-1.13-1.83-2.35-2.89-3.37-3-2.92-7.27-2.43-9.01,1.35-.92,1.99-.88,4.45-1.1,6.72-.21,2.12,1.11,3.62,2.87,4.19,1.69.55,3.53.39,5.02-1.2,1.56-1.68,3.4-3.11,5.11-4.64,3.33,0,6.65.02,9.98.03.58,1.23,1.33.98,2.17.27.59-.5,1.22-.94,1.83-1.4,1.28-1.09,2.55-2.19,3.83-3.28-.15-.31-.3-.63-.45-.94-5.68,1.83-11.43,2.83-17.35,2.28ZM218.93,132.18c7.93,9.19,21.33,6.15,26.59.14,1.11-1.27,2.34-2.47.98-4.69h-8.35c-2.53,5.08-4.38,6.4-7.31,5.36-2.75-.98-3.37-3.4-2.15-8.81.9-.05,1.88-.12,2.86-.14,3.67-.06,7.33-.04,11-.17,3.44-.12,4.56-1.57,3.47-4.78-.84-2.49-2.22-4.62-4.38-6.46-3.94-3.34-8.45-2.62-12.86-2.48-7.7.25-12.9,5.77-12.89,13.36,0,1.5.16,2.99.25,4.49.06,1.97.46,3.72,2.78,4.18ZM88.56,110.93c4.02,0,7.15.05,10.28-.01,4.04-.08,4.45-.56,5.06-4.47.71-4.59,1.58-9.15,2.35-13.73.9-5.35,2.25-10.66,1.82-16.47h-11.91c-.99,3.58-1.99,7.17-2.97,10.72h-8.85c.34-2.27.62-4.2.91-6.12.56-3.64.34-3.89-3.41-3.96-.83-.01-1.67,0-2.5.04-3.56.17-3.91.5-4.55,3.88-1.43,7.49-2.93,14.96-4.34,22.45-.51,2.73-.82,5.5-1.27,8.52,4.01.43,7.72.93,10.8-.21,2.79-5.11,1.15-10.76,4.09-15.17h6.2c-.57,4.81-1.09,9.22-1.72,14.51ZM55.29,75.21c-1.58,9.12-2.92,17.62-4.57,26.06-1.42,7.29-1.14,7.79,6.16,7.55,3.47-.11,4.43-.83,5.02-4.17.75-4.24,1.29-8.51,2.01-12.76,1.02-5.99,2.12-11.96,3.21-18.1,8.73-.97,16.95-1.91,25.18-2.8,4.13-.45,4.65-1.1,4.33-6.52-16.42.66-32.89.38-49.57,1.72v8.43c2.63.19,5.05.36,8.22.58ZM164.11,126.96c-2.58,0-4.39.07-6.2-.01-3.76-.17-6.7,1.45-9.26,4.01-5,5-3.35,13.87,3.24,16.35,1.92.72,4.39,1.04,6.31.49,3.31-.95,6.55-.49,9.82-.54,1-.01,2-.02,2.99-.01,2.06.03,3.04-1.03,3.11-3.03.27-7.63.61-15.26.79-22.89.07-3.16-1.5-5.63-3.81-7.77-6.19-5.75-20.14-4.55-25.06,3.71-.54.9-.74,2.01-1.2,3.31,4.25.39,7.65.78,11.02-2.33,3.81-3.52,8.51-.62,8.26,3.87-.08,1.45-.01,2.91-.01,4.86ZM140.33,87.68c.82-5.85-1.63-9.9-6.53-11.58-5.52-1.9-10.95-1.26-15.92,1.28-4.44,2.26-7.39,6.07-7.65,11.43-.26,5.36,2.63,8.79,7.08,10.93,5.13,2.47,10.67,2.69,15.82.45,3.14-1.37,6.54-3.36,6.84-8.08h-7.82c-.59,1.08-.98,2.01-1.55,2.82-1.29,1.84-3.79,2.69-5.68,1.94-1.93-.76-2-2.46-1.92-4.18.06-1.14.15-2.28.26-3.84,5.58-1.4,11.3.07,17.05-1.16ZM109.35,99.56v4.85c1.43-.63,2.45-1.08,3.96-1.75-1.49-1.17-2.45-1.91-3.96-3.09Z"/>
      <path class="cls-33" d="M213.72,153.15v11.74c-1.51.1-2.85.19-4.43.3v-10.12c1.48-.64,2.95-1.28,4.43-1.92Z"/>
      <path class="cls-22" d="M41.29,169.89c-.38,8.08-.76,16.15-1.17,24.73-2.47.19-4.38.33-6.51.49-1.63-7.16.56-14,.55-20.88,0-6.78.72-13.56,1.15-20.76h11.09c1.03,6.67,2.07,13.44,3.19,20.63,3.67-2.55,2.07-6.69,3.31-9.78,1.33-3.31,1.64-7.02,2.48-10.91h11.21c0,6.92.1,13.69-.03,20.45-.12,6.8-.47,13.6-.73,20.77h-6.7v-26.03c-.21,0-.41,0-.62,0-1.53,7.52-3.09,15.04-4.6,22.57-.68,3.37-4.72,5.28-7.61,3.4-.69-.45-1.14-1.59-1.28-2.48-1.13-7.47-2.16-14.96-3.23-22.45-.17.08-.35.16-.52.24Z"/>
      <path class="cls-10" d="M69.45,174.5c-.02-5.18,1.64-9.83,3.77-14.05,5.06-10.03,18.42-11.21,24.87-3.27,2.75,3.38,3.76,7.11,4.16,11.35.48,5.14.19,10.11-1.19,15.08-2.55,9.18-11.74,14.29-20.58,11.07-3.69-1.34-6.59-4.17-7.92-7.84-1.44-3.96-2.11-8.21-3.11-12.33ZM78.4,173.87c.16,3.66,1.02,6.75,3.24,9.45,3.19,3.88,6.88,3.78,9.84-.27,3.23-4.43,3.52-13.94.31-18.48-3.47-4.91-8.1-4.13-10.62.58-1.41,2.64-1.88,5.8-2.77,8.72Z"/>
      <path class="cls-35" d="M156.97,177.89c-2.48.07-4.97.1-7.45.23-2.94.16-3.33.59-3.48,3.58-.04.83-.04,1.66.02,2.49.03.46.22.92.36,1.49h12.47v8.98h-21.72c-.02-5.72-.03-11.12-.05-16.51h-.03c.27-1.22.76-2.43.78-3.65.15-7.13.2-14.26.28-21.39,7.29,0,14.58-.01,21.87-.02-.04,2.99-.08,5.97-.12,8.96l-.44-.02s-.42.12-.42.12c-3.21-.03-6.42-.14-9.62-.05-.8.02-1.58.64-2.38.99.01,1.67.02,3.34.03,5,.84.31,1.66.84,2.52.9,2.8.19,5.61.2,8.41.28-.34,2.87-.69,5.75-1.03,8.62Z"/>
      <path class="cls-42" d="M28.87,162.22h-7.46c-1.08,2.99-.6,5.3,1.52,7.44,1.51,1.52,2.8,3.27,4.04,5.03,3.03,4.31,3.93,15.19-2.03,19-.93.6-2.01,1.27-3.06,1.34-2.65.18-5.33.14-7.99,0-2.29-.13-3.72-1.45-3.72-3.83,0-2.22.22-4.44.36-7.05,2.23.84,3.69,1.66,5.25,1.93,3.42.6,5.13-1.3,4.24-4.67-.33-1.24-1.09-2.41-1.83-3.49-1.12-1.63-2.37-3.18-3.61-4.73-3.57-4.46-3.39-9.69-2.21-14.67,1.22-5.12,7.19-7.64,13-6.21,1.11.27,2.15.8,3.49,1.32v8.6Z"/>
      <path class="cls-35" d="M133.01,157c-2.56,4.55-5.28,9.02-7.56,13.71-.59,1.21-.1,3.24.48,4.66,2.54,6.18,5.31,12.26,7.98,18.39.05.12-.07.32-.19.84-3.07.75-6.28.45-9.88.13-.61-2.01-1.12-4.06-1.88-6.01-.39-1.01-1.21-1.84-1.84-2.76-.57-2.7-.67-5.51-2.59-7.82-.54-.65-.4-1.88-.57-2.84.35-2.41.7-4.83,1.06-7.24,1.69-3.83,3.56-7.61,5.02-11.53.96-2.56,2.47-3.63,5.12-3.48,1.77.11,3.56.02,6.04.02-.5,1.67-.85,2.81-1.19,3.94Z"/>
      <path class="cls-20" d="M107.04,153.25h8.8c-.36,13.88-.72,27.55-1.08,41.5h-8.38c-1.3-13.61,1.15-27.25.66-41.5Z"/>
      <path class="cls-19" d="M22.77,164.88c3.75-1.83,5.71.89,7.75,2.34,2.99,2.13.87,5.49,1.48,8.93-4.14-3.38-6.92-6.97-9.23-11.27Z"/>
      <path class="cls-27" d="M145,150c1.02.03,2.04.06,3.05.09-2.66,2.04-5.82,1.33-8.43.61-5.36-1.48-10.45-.17-15.59.58-1.14.17-2.12,2.2-2.95,3.52-.81,1.28-1.33,2.75-2.71,3.84.17-2.49.33-4.97.5-7.46l.23-.33c3.54-.65,7.08-1.29,10.62-1.94l7.4.1c2.63.33,5.25.65,7.88.98Z"/>
      <path class="cls-16" d="M138.14,153.11c-.08,7.13-.12,14.26-.28,21.39-.03,1.22-.51,2.44-.78,3.65-.01-7.22-.08-14.45,0-21.67.01-1.13.69-2.25,1.05-3.37Z"/>
      <path class="cls-16" d="M147.03,163.09c.79-.34,1.58-.97,2.38-.99,3.21-.08,6.42.02,9.62.05-.85.31-1.7.86-2.56.89-3.14.11-6.3.04-9.44.04Z"/>
      <path class="cls-16" d="M158,169.27c-2.8-.08-5.61-.09-8.41-.28-.86-.06-1.68-.59-2.52-.9,2.9,0,5.79-.08,8.68.05.77.04,1.5.73,2.25,1.13Z"/>
      <path class="cls-16" d="M159.9,162.05c.04-2.99.08-5.97.12-8.96,1.5,3.14,1.45,6.22-.12,8.96Z"/>
      <path class="cls-43" d="M149.19,165.4c2.77-.17,5.53-.33,8.3-.5,0,.41.02.83.02,1.24-2.77-.12-5.55-.25-8.32-.37,0,0,0-.36,0-.36Z"/>
      <path class="cls-20" d="M118.02,168.04c-.35,2.41-.7,4.83-1.06,7.24-2.14-2.78-.88-5.06,1.06-7.24Z"/>
      <path class="cls-29" d="M185.03,149.14c-.19-1.27-.39-2.54-.66-4.34,1.2-.22,2.41-.5,3.64-.66,3.64-.46,7.14-1.21,10.07-3.7,1.65-1.4,2.67-2.86,1.93-4.69-3.66.45-7.04,1.28-10.4,1.19-5.61-.15-9.93-2.94-11.77-8.38-1.73-5.09-.35-9.86,3.12-13.88,3.61-4.19,8.43-5.64,13.82-5.42,4.78.2,9.56.44,14.34.68.98.05,1.95.19,3.45.35.1,1.84.33,3.6.27,5.35-.16,4.65-.83,9.31-.61,13.93.45,9.59-4.52,15.12-12.82,18.5-1.49.61-2.96,1.27-4.44,1.91-3.42.95-6.7.28-9.94-.85ZM199.2,117.89c-4.57-2.19-5.99-2-9.14.1-2.79,1.85-2.4,4.56-2.22,7.13.19,2.76,3.54,5.09,6.52,4.89,3.09-.21,4.71-1.84,4.83-5.05.08-2.31.02-4.62.02-7.06Z"/>
      <path class="cls-42" d="M224.13,194.79h-9.04c.35-5.47.7-10.79,1.06-16.47h-10.79v16.35h-9.3c.47-13.76.95-27.4,1.43-41.32h8.34v14.43h10.2v-14.42h8.8c1.37,13.57-1.12,27.22-.68,41.43Z"/>
      <path class="cls-10" d="M260.95,173.52c.64,5.32-1.08,10.24-3.63,14.95-2.23,4.13-5.72,6.36-10.37,6.61-10.62.58-17.58-5.84-17.87-16.46-.08-3,.09-6,0-8.99-.19-7.07,3.56-12.4,9-15.64,7.44-4.44,16.3-1.46,20.04,5.56,2.34,4.39,3.24,8.93,2.83,13.98ZM252.12,173.07c0-1.16.09-2.66-.02-4.15-.3-4.16-2.95-7.19-6.52-7.59-2.1-.23-6.67,3.29-7.41,5.88-1.29,4.52-1.3,9.12-.02,13.63,1.59,5.62,7.07,6.84,11.14,2.72,2.88-2.92,3.04-6.45,2.82-10.48Z"/>
      <path class="cls-42" d="M287.03,171.99c-.57.58-1.32,1.07-1.69,1.76-2.2,4.13-5.57,5.9-10.2,5.28v.03c-.49-2.01.87-4.76-2.72-6.1-.18,7.63-.35,14.86-.52,22.09-2.22-.01-4.44-.02-6.66-.04-.06-7.48-.12-14.96-.18-22.44-.02-2.49-.05-4.99-.07-7.48v-11.98c5.8,0,11.23-.42,16.53.22,1.94.23,4.69,2.75,5.09,4.64.6,2.85,2.01,5.89.7,9.11-.59,1.44-.22,3.26-.28,4.91ZM278.69,162.37h-5.35v7.5c5.87.39,6.34-.26,5.35-7.5Z"/>
      <path class="cls-42" d="M173.49,184.97c2.04.43,3.77,1,5.52,1.11,3.79.24,5.24-1.95,3.38-5.3-1.59-2.87-3.65-5.48-5.45-8.24-2.76-4.23-3.76-8.69-2.05-13.66,2.09-6.09,9.92-9.13,15.35-5.69.83.52,1.56,1.75,1.68,2.73.25,2.11.08,4.28.08,6.43-2.29-.13-4.38-.44-6.44-.32-2,.12-3.07,1.65-2.31,3.48.8,1.94,1.98,3.77,3.26,5.44,3.05,3.95,6.33,7.78,5.61,13.27-.28,2.11-.41,4.46-1.45,6.19-1.49,2.48-3.37,5.07-7.01,4.7-.66-.07-1.33.03-2,.03-8.67.04-9.13-.51-8.17-10.17Z"/>
      <path class="cls-40" d="M193.76,167.52v7.39c-3.1-3.17-6.46-5.82-8.05-10.12,3.94-1.28,5.59,2,8.05,2.73Z"/>
      <path class="cls-39" d="M224.32,149.98c2.12-1.39,2.88-1.22,3.66.83-1.22-.28-2.44-.55-3.66-.83Z"/>
      <path class="cls-21" d="M132.1,183.04c-1.45-3.47-2.89-6.95-4.37-10.5,2.05-4.12,4.08-8.2,6.65-13.36,1.33,4.11.7,7.32.76,10.43.06,3.15-.1,6.3-.16,9.45-.29.85-.42,1.81-.92,2.52-.45.63-1.29.99-1.96,1.47Z"/>
      <path class="cls-4" d="M132.1,183.04c.67-.48,1.51-.83,1.96-1.47.5-.71.63-1.67.92-2.52v7.56c-.29.1-.58.21-.88.31-.67-1.3-1.34-2.59-2-3.89Z"/>
      <path class="cls-43" d="M235.16,152.14c-1.53.74-3.06,1.49-4.79,2.33v-5.07h6.27c-.48.87-1,1.82-1.51,2.76l.04-.02Z"/>
      <path class="cls-17" d="M271.91,195.06c.17-7.23.34-14.47.52-22.09,3.59,1.34,2.22,4.1,2.72,6.1-.61-.17-1.22-.34-2.06-.57,0,4.68.06,9.23-.05,13.77-.02.94-.73,1.86-1.12,2.78Z"/>
      <path class="cls-18" d="M129.73,148.92c-3.54.65-7.08,1.29-10.62,1.94-1.2-.3-2.4-.87-3.6-.87-6.56.01-10.34-2.66-13.5-9.8-4.81-10.87.17-25.62,9.66-31.84,6.63-4.35,13.92-5.15,21.54-.9,5.84,3.26,8.33,7.59,7.89,14.3-1.91.4-3.63.83-5.39,1.12-1.88.31-3.59.06-4.89-1.64-2.98-3.89-6.83-5.25-11.42-3.22-4.55,2.01-6.31,6.11-7.1,10.66-.57,3.28.61,6.24,2.46,8.89,2.21,3.16,8.22,3.95,11.66,1.57.95-.65,1.79-1.48,2.59-2.31,2.93-3.04,6.23-3.51,10.76-1.33-.74,3.61-2.49,6.69-5.2,9.22-1.56,1.47-3.24,2.81-4.87,4.21Z"/>
      <path class="cls-18" d="M88.56,110.93c.63-5.29,1.15-9.7,1.72-14.51h-6.2c-2.94,4.41-1.3,10.06-4.09,15.17-3.08,1.13-6.79.64-10.8.21.44-3.03.76-5.79,1.27-8.52,1.4-7.49,2.9-14.97,4.34-22.45.65-3.38.99-3.71,4.55-3.88.83-.04,1.67-.06,2.5-.04,3.75.06,3.96.32,3.41,3.96-.29,1.92-.57,3.85-.91,6.12h8.85c.98-3.55,1.98-7.14,2.97-10.72h11.91c.43,5.8-.92,11.11-1.82,16.47-.77,4.58-1.65,9.14-2.35,13.73-.6,3.9-1.02,4.39-5.06,4.47-3.13.06-6.26.01-10.28.01Z"/>
      <path class="cls-29" d="M55.29,75.21c-3.17-.23-5.59-.4-8.22-.58v-8.43c16.68-1.34,33.15-1.06,49.57-1.72.32,5.42-.2,6.07-4.33,6.52-8.23.89-16.46,1.83-25.18,2.8-1.09,6.15-2.19,12.12-3.21,18.1-.72,4.24-1.27,8.52-2.01,12.76-.59,3.34-1.55,4.06-5.02,4.17-7.3.24-7.58-.26-6.16-7.55,1.64-8.44,2.98-16.95,4.57-26.06Z"/>
      <path class="cls-33" d="M164.11,126.96c0-1.95-.07-3.41.01-4.86.25-4.49-4.45-7.39-8.26-3.87-3.37,3.11-6.77,2.71-11.02,2.33.46-1.3.66-2.41,1.2-3.31,4.93-8.26,18.88-9.46,25.06-3.71,2.31,2.14,3.88,4.61,3.81,7.77-.17,7.63-.51,15.26-.79,22.89-.07,2.01-1.05,3.06-3.11,3.03-1-.01-2,0-2.99.01-3.27.04-6.5-.42-9.82.54-1.92.55-4.39.24-6.31-.49-6.59-2.48-8.24-11.34-3.24-16.35,2.56-2.56,5.5-4.18,9.26-4.01,1.81.08,3.63.01,6.2.01ZM159.73,133.29c-3.01-.08-5.8,2.29-5.78,4.9.02,2.19,2.15,4.49,4.35,4.68,2.81.24,4.61-2,4.63-5.77.01-3.04-.58-3.75-3.2-3.81Z"/>
      <path class="cls-37" d="M216.14,128c-.09-1.5-.25-2.99-.25-4.49-.01-7.59,5.19-13.11,12.89-13.36,4.41-.15,8.91-.86,12.86,2.48,2.16,1.83,3.54,3.97,4.38,6.46,1.09,3.21-.04,4.66-3.47,4.78-3.66.13-7.33.11-11,.17-.98.02-1.96.09-2.86.14-1.22,5.41-.6,7.83,2.15,8.81,2.93,1.04,4.78-.27,7.31-5.36h8.35c1.36,2.22.13,3.42-.98,4.69-5.26,6.02-18.66,9.05-26.59-.14-.93-1.39-1.85-2.79-2.78-4.18ZM235.15,117.95c-2.38-3.24-4.35-4.24-6.76-3.45-1.84.6-3.95,1.19-3.2,4.17,3.17.12,6.36.82,9.96-.72Z"/>
      <path class="cls-15" d="M140.33,87.68c-5.75,1.23-11.48-.24-17.05,1.16-.11,1.57-.2,2.7-.26,3.84-.08,1.72-.01,3.41,1.92,4.18,1.89.75,4.39-.1,5.68-1.94.57-.81.96-1.74,1.55-2.82h7.82c-.31,4.73-3.7,6.72-6.84,8.08-5.15,2.24-10.7,2.02-15.82-.45-4.45-2.14-7.34-5.57-7.08-10.93.26-5.37,3.21-9.17,7.65-11.43,4.97-2.53,10.4-3.18,15.92-1.28,4.89,1.69,7.35,5.74,6.53,11.58ZM119.61,83.4c3,.21,6,.42,8.75.62,1.56-2.46.59-3.57-1.13-4.35-3.37-1.54-5.59.31-7.62,3.73Z"/>
      <path class="cls-8" d="M130.04,130.1c-1.72,1.54-3.55,2.96-5.11,4.64-1.49,1.59-3.32,1.75-5.02,1.2-1.77-.58-3.08-2.08-2.87-4.19.22-2.27.18-4.73,1.1-6.72,1.75-3.79,6.01-4.28,9.01-1.35,1.06,1.03,1.93,2.24,2.89,3.37.67.34,1.34.97,2.01.97,3.89,0,7.78-.13,11.77-.22.04.24.12.72.19,1.2-.61.47-1.24.91-1.83,1.4-.84.71-1.59.95-2.17-.27-2.96-1.5-6.88-1.51-9.98-.03Z"/>
      <path class="cls-3" d="M145,150c-2.63-.33-5.25-.65-7.88-.98,1.31-1.99,2.62-3.97,4.03-6.13,2.48,2.2,4.19,4.11,3.84,7.11Z"/>
      <path class="cls-28" d="M144.02,129c-.08-.48-.15-.96-.19-1.2-3.99.09-7.88.23-11.77.22-.67,0-1.34-.63-2.01-.97,5.92.56,11.67-.45,17.35-2.28.15.31.3.63.45.94-1.28,1.09-2.55,2.19-3.83,3.28Z"/>
      <path class="cls-13" d="M109.35,99.56c1.51,1.18,2.47,1.93,3.96,3.09-1.51.67-2.53,1.12-3.96,1.75v-4.85Z"/>
      <path class="cls-28" d="M130.04,130.1c3.1-1.48,7.02-1.47,9.98.03-3.33,0-6.65-.02-9.98-.03Z"/>
      <path class="cls-30" d="M216.14,128c.93,1.39,1.85,2.79,2.78,4.18-2.33-.46-2.72-2.21-2.78-4.18Z"/>
      <path class="cls-26" d="M78.4,173.87c.89-2.92,1.35-6.07,2.77-8.72,2.52-4.71,7.15-5.49,10.62-.58,3.21,4.54,2.93,14.05-.31,18.48-2.96,4.05-6.65,4.14-9.84.27-2.22-2.7-3.08-5.78-3.24-9.45ZM91.52,173.49c-.64-2.46-.9-5-1.97-7.14-1.4-2.82-4.35-2.84-5.84-.08-2.48,4.61-2.82,9.56-.6,14.37,1.51,3.28,4.72,3.33,6.38.05,1.08-2.14,1.35-4.69,2.02-7.2Z"/>
      <path class="cls-36" d="M199.2,117.89c0,2.45.07,4.76-.02,7.06-.12,3.21-1.74,4.84-4.83,5.05-2.98.2-6.33-2.14-6.52-4.89-.18-2.57-.57-5.28,2.22-7.13,3.15-2.09,4.57-2.29,9.14-.1ZM194.42,121.29q-2.32.58-1.73,3.57,2.32-.54,1.73-3.57Z"/>
      <path class="cls-12" d="M252.12,173.07c.21,4.03.06,7.56-2.82,10.48-4.07,4.12-9.55,2.91-11.14-2.72-1.28-4.51-1.27-9.1.02-13.63.73-2.59,5.31-6.11,7.41-5.88,3.57.4,6.22,3.43,6.52,7.59.11,1.49.02,2.99.02,4.15ZM244.68,183.25c5.4-3.87,6.77-12.63,3.02-17.48-1.18-1.52-3.02-1.86-4.31-.59-2.99,2.95-3.23,6.73-3.12,10.65.09,3.25,1.19,5.77,4.41,7.42Z"/>
      <path class="cls-5" d="M278.69,162.37c.99,7.24.52,7.89-5.35,7.5v-7.5h5.35Z"/>
      <path class="cls-31" d="M159.73,133.29c2.63.07,3.22.77,3.2,3.81-.02,3.77-1.82,6.01-4.63,5.77-2.2-.19-4.33-2.49-4.35-4.68-.02-2.61,2.77-4.97,5.78-4.9Z"/>
      <path class="cls-1" d="M235.15,117.95c-3.6,1.54-6.79.84-9.96.72-.75-2.97,1.36-3.57,3.2-4.17,2.41-.79,4.38.21,6.76,3.45Z"/>
      <path class="cls-6" d="M119.61,83.4c2.03-3.42,4.25-5.27,7.62-3.73,1.72.78,2.69,1.9,1.13,4.35-2.75-.19-5.75-.41-8.75-.62Z"/>
      <path class="cls-14" d="M91.52,173.49c-.67,2.51-.94,5.06-2.02,7.2-1.67,3.29-4.87,3.23-6.38-.05-2.22-4.81-1.88-9.76.6-14.37,1.48-2.76,4.44-2.73,5.84.08,1.06,2.14,1.32,4.68,1.97,7.14Z"/>
      <path class="cls-11" d="M194.42,121.29q.59,3.03-1.73,3.57-.59-2.99,1.73-3.57Z"/>
      <path class="cls-7" d="M244.68,183.25c-3.23-1.65-4.32-4.16-4.41-7.42-.11-3.92.12-7.7,3.12-10.65,1.29-1.27,3.13-.93,4.31.59,3.75,4.84,2.39,13.61-3.02,17.48Z"/>
    </g>
  </g>
</svg>